<svg
   width="135.46666mm"
   height="135.46666mm"
   viewBox="0 0 135.46666 135.46666"
   version="1.1"
   id="svg5"
>
  <defs
     id="defs2" />
  <g
     id="layer1"
     transform="translate(133.50592,-79.389557)">
    <g
       id="g15643"
       transform="rotate(180,0.57695046,154.33479)">
      <path
         styles="fill:#fefefe;stroke-width:0.264583"
         d="M -0.80683857,161.5467 V 93.81337 H 29.915039 60.636917 l -1.414438,0.738912 c -1.580891,0.825868 -2.977579,2.456008 -3.396419,3.964124 -0.150535,0.542028 -0.274365,1.777864 -0.275175,2.746304 l -0.0016,1.76079 -1.149223,0.67349 c -1.301187,0.76255 -2.484665,2.18397 -2.985918,3.58626 -0.245886,0.68788 -0.343305,3.10294 -0.353161,8.75512 -0.01537,8.82036 -0.196517,10.4771 -1.43189,13.09687 -1.313776,2.78602 -3.565314,5.36301 -8.899988,10.18646 -7.067833,6.39051 -10.026967,9.9094 -12.685601,15.08521 -5.747786,11.18976 -5.476868,26.07282 0.694537,38.15497 2.07804,4.06831 4.268652,7.0301 7.893319,10.67206 6.074651,6.10364 13.125547,9.91495 21.828341,11.79916 2.405441,0.5208 3.541241,0.60149 8.466666,0.60149 4.925425,0 6.061226,-0.0807 8.466667,-0.60149 8.702793,-1.88421 15.75369,-5.69552 21.82834,-11.79916 3.624666,-3.64196 5.815286,-6.60375 7.893326,-10.67206 6.16637,-12.07231 6.44175,-26.96631 0.70507,-38.13445 -2.64993,-5.1591 -5.40799,-8.44736 -12.568249,-14.98447 -5.644226,-5.15302 -7.697012,-7.49742 -9.025569,-10.30772 -1.237223,-2.6171 -1.420215,-4.28512 -1.422477,-12.96633 -0.0011,-4.22106 -0.118313,-8.08023 -0.260477,-8.57592 -0.400523,-1.39655 -1.551543,-2.86663 -2.958044,-3.77801 l -1.281393,-0.83031 -0.0016,-1.74138 c -7.94e-4,-0.95776 -0.12464,-2.184856 -0.275175,-2.726884 C 77.608083,97.00829 76.211395,95.37815 74.630504,94.552282 L 73.216066,93.81337 h 30.721874 30.72188 v 67.73333 67.73333 h -33.36681 c -32.881182,0 -33.357718,-0.007 -32.742183,-0.50521 0.583237,-0.47174 0.630438,-0.71565 0.712401,-3.68114 0.09918,-3.58852 -0.06647,-4.13259 -1.431991,-4.70314 -0.78417,-0.32765 -1.025321,-0.32765 -1.809491,0 -1.365517,0.57055 -1.531173,1.11462 -1.431991,4.70314 0.08196,2.96549 0.129164,3.2094 0.712401,3.68114 0.615535,0.49786 0.138999,0.50521 -32.742186,0.50521 H -0.80683857 Z M 41.010082,221.86487 c 0.759505,-0.40647 3.426827,-5.08965 3.426827,-6.01668 0,-1.72167 -1.858055,-2.86412 -3.378983,-2.07762 -1.043289,0.53951 -3.500183,4.77506 -3.500183,6.03413 0,1.77435 1.884796,2.89909 3.452339,2.06017 z m 54.207902,-0.11568 c 1.536514,-0.79456 1.463545,-2.18269 -0.272894,-5.19142 -1.556142,-2.69632 -1.716019,-2.86083 -2.979592,-3.06588 -0.79846,-0.12957 -1.056825,-0.0327 -1.7434,0.65391 -1.186622,1.18663 -1.076399,2.02728 0.650552,4.96162 0.801118,1.36121 1.664322,2.59594 1.918229,2.74385 0.658651,0.38367 1.561163,0.34572 2.427105,-0.10208 z M 22.84737,201.06876 c 2.942466,-1.68057 3.33329,-2.07562 3.33329,-3.36936 0,-1.45018 -0.797127,-2.28604 -2.180118,-2.28604 -0.763474,0 -1.621496,0.34965 -3.320089,1.35293 -1.2598,0.7441 -2.43884,1.54778 -2.620088,1.78594 -0.578478,0.76011 -0.420935,2.36687 0.303061,3.09087 0.974213,0.97421 2.003446,0.84238 4.483944,-0.57434 z m 92.21436,0.83668 c 0.85128,-0.44021 1.07726,-0.88035 1.07726,-2.0982 0,-1.11488 -0.5578,-1.67761 -3.13832,-3.16605 -2.45321,-1.41501 -3.71807,-1.59002 -4.71598,-0.65254 -0.84546,0.79427 -0.85451,2.55203 -0.0171,3.313 0.98316,0.89337 4.78428,2.98098 5.4371,2.9861 0.33465,0.003 0.9453,-0.16941 1.357,-0.38231 z M 18.928106,174.43038 c 0.86025,-1.001 0.8554,-2.37155 -0.01146,-3.23841 -0.620007,-0.62001 -0.798766,-0.64944 -3.945231,-0.64944 h -3.295798 l -0.684978,0.81405 c -0.756225,0.89873 -0.846278,1.63923 -0.31575,2.59641 0.641938,1.1582 1.374076,1.36259 4.615196,1.28841 2.921738,-0.0669 3.016702,-0.088 3.638021,-0.81102 z m 103.171404,0.55856 c 0.74691,-0.34032 1.44781,-1.45198 1.44781,-2.2963 0,-0.2871 -0.30824,-0.88833 -0.68498,-1.33606 l -0.68497,-0.81405 h -3.2958 c -3.14647,0 -3.32523,0.0294 -3.94523,0.64944 -1.12152,1.12152 -0.69498,3.26035 0.76794,3.85071 0.86283,0.34819 5.60045,0.30838 6.39523,-0.0537 z m -96.7329,-25.23972 c 0.646045,-0.54361 0.81405,-0.89249 0.81405,-1.69048 0,-1.33584 -0.469847,-1.82458 -3.307291,-3.44024 -1.881379,-1.07127 -2.547874,-1.32527 -3.175,-1.20997 -1.689703,0.31066 -2.589063,2.55842 -1.521354,3.8023 0.649024,0.75612 5.080413,3.22337 5.789429,3.22337 0.322364,0 0.952438,-0.30824 1.400166,-0.68498 z m 87.47619,-0.65699 c 1.30358,-0.73809 2.57851,-1.58472 2.83317,-1.8814 1.03725,-1.2084 0.21392,-3.43601 -1.40106,-3.79072 -0.66104,-0.14519 -1.25507,0.0825 -3.43449,1.31651 -2.80455,1.58795 -3.17297,1.98031 -3.15968,3.36508 0.009,0.95087 0.35388,1.53789 1.18221,2.01293 0.90954,0.52162 1.53798,0.36018 3.97985,-1.0224 z"
         id="path15715" />
      <path
         styles="fill:#f3f3f3;stroke-width:0.264583"
         d="m 109.80988,171.44653 c 0.0127,-0.30823 0.0754,-0.37092 0.15985,-0.15986 0.0764,0.191 0.067,0.4192 -0.0209,0.50712 -0.0879,0.0879 -0.15045,-0.0684 -0.13896,-0.34726 z M 37.160868,142.4967 c 0.26339,-0.29104 0.538422,-0.52917 0.611182,-0.52917 0.07276,0 -0.08321,0.23813 -0.346599,0.52917 -0.26339,0.29104 -0.538422,0.52917 -0.611182,0.52917 -0.07276,0 0.08321,-0.23813 0.346599,-0.52917 z m 53.015205,-5.75469 c -0.329107,-0.41964 -0.319749,-0.429 0.0999,-0.0999 0.44073,0.34564 0.580888,0.56291 0.363125,0.56291 -0.05494,0 -0.2633,-0.20835 -0.463021,-0.46302 z"
         id="path15713" />
      <path
         styles="fill:#e7e7e7;stroke-width:0.264583"
         d="m 23.841187,172.13003 c 0,-0.3638 0.06005,-0.51263 0.133452,-0.33073 0.0734,0.1819 0.0734,0.47956 0,0.66146 -0.0734,0.1819 -0.133452,0.0331 -0.133452,-0.33073 z m 85.968693,0.11025 c 0.0127,-0.30823 0.0754,-0.37092 0.15985,-0.15986 0.0764,0.191 0.067,0.4192 -0.0209,0.50712 -0.0879,0.0879 -0.15045,-0.0683 -0.13896,-0.34726 z M 35.70566,143.95191 c 0.493654,-0.50932 0.957085,-0.92604 1.029845,-0.92604 0.07276,0 -0.271608,0.41672 -0.765262,0.92604 -0.493654,0.50932 -0.957085,0.92604 -1.029846,0.92604 -0.07276,0 0.271608,-0.41672 0.765263,-0.92604 z m 62.03234,-0.19844 -1.045885,-1.12448 1.124479,1.04589 c 1.045755,0.97266 1.246063,1.20307 1.045885,1.20307 -0.04323,0 -0.549244,-0.50601 -1.124479,-1.12448 z"
         id="path15711" />
      <path
         styles="fill:#c9c9c9;stroke-width:0.264583"
         d="m 13.819373,175.11023 c 0.695615,-0.0547 1.767177,-0.054 2.38125,0.002 0.614073,0.0555 0.04493,0.10022 -1.264754,0.0994 -1.309687,-8e-4 -1.812111,-0.0462 -1.116496,-0.10089 z m 103.981247,0 c 0.69561,-0.0547 1.76718,-0.054 2.38125,0.002 0.61407,0.0555 0.0449,0.10022 -1.26476,0.0994 -1.30968,-8e-4 -1.81211,-0.0462 -1.11649,-0.10089 z"
         id="path15709" />
      <path
         styles="fill:#b7b7b7;stroke-width:0.264583"
         d="m 37.523993,204.21076 c -0.329108,-0.41964 -0.319749,-0.429 0.0999,-0.0999 0.254661,0.19973 0.463021,0.40808 0.463021,0.46303 0,0.21776 -0.217274,0.0776 -0.562917,-0.36313 z"
         id="path15707" />
      <path
         styles="fill:#fdda00;stroke-width:0.264583"
         d="m 60.375829,210.50288 c -13.90171,-2.44623 -25.601058,-12.69786 -29.902241,-26.20201 -1.2148,-3.81404 -1.709772,-7.22255 -1.709772,-11.77396 0,-6.40314 1.149152,-11.5033 3.668501,-16.28152 2.287357,-4.33823 4.466748,-6.79696 13.76818,-15.53292 5.836261,-5.48145 7.998121,-8.62911 9.022612,-13.13687 l 0.457324,-2.01223 h 2.183447 2.183445 v 11.62691 11.62691 l 0.633378,0.73635 c 0.902682,1.04943 2.593062,1.04943 3.495744,0 l 0.633378,-0.73635 v -11.62691 -11.62691 h 2.116666 2.116667 v 11.62691 11.62691 l 0.633378,0.73635 c 0.902682,1.04943 2.593062,1.04943 3.495744,0 l 0.633378,-0.73635 0.01423,-11.16389 c 0.01413,-11.08271 0.01765,-11.15331 0.485249,-9.70868 1.429297,4.41579 3.606731,7.13679 11.27448,14.08901 7.598515,6.88945 10.745657,11.1698 13.082155,17.79271 1.879518,5.32757 2.490088,13.353 1.489618,19.57973 -2.019184,12.56707 -10.129816,23.70952 -21.45094,29.46948 -1.67936,0.85443 -2.764393,1.18759 -5.251812,1.61258 -3.98822,0.6814 -9.250526,0.68734 -13.072808,0.0147 z m 3.231518,-49.12053 c 0.747815,-0.28697 1.202478,-1.57809 1.202478,-3.41474 0,-1.58506 -0.07421,-1.82749 -0.773398,-2.52668 -0.822122,-0.82212 -1.678266,-0.97107 -2.756853,-0.47964 -0.912672,0.41585 -1.232249,1.30666 -1.232249,3.43489 0,1.61318 0.08364,1.9353 0.649433,2.50109 0.646004,0.646 1.932488,0.86041 2.910589,0.48508 z m 9.548878,-0.48508 c 0.565793,-0.56579 0.649433,-0.88791 0.649433,-2.50109 0,-2.12823 -0.319577,-3.01904 -1.232249,-3.43489 -1.090031,-0.49665 -1.934403,-0.34281 -2.784536,0.50732 -0.780442,0.78044 -0.798581,0.8561 -0.704112,2.93634 0.08437,1.85787 0.177702,2.20063 0.718452,2.6385 0.913919,0.74005 2.537571,0.66926 3.353012,-0.14618 z"
         id="path15705" />
      <path
         styles="fill:#fdd400;stroke-width:0.264583"
         d="m 78.568158,209.05802 c 0,-0.0728 0.238125,-0.25973 0.529166,-0.41549 0.291042,-0.15576 0.529167,-0.22367 0.529167,-0.15091 0,0.0728 -0.238125,0.25973 -0.529167,0.41549 -0.291041,0.15576 -0.529166,0.22368 -0.529166,0.15091 z m 6.614583,-4.21955 c 0,-0.0549 0.208359,-0.2633 0.46302,-0.46302 0.419645,-0.32911 0.429004,-0.31975 0.0999,0.0999 -0.345643,0.44073 -0.562916,0.58089 -0.562916,0.36313 z m 1.587499,-1.30581 c 0,-0.0455 0.386954,-0.43249 0.859896,-0.8599 l 0.859896,-0.7771 -0.777105,0.85989 c -0.724371,0.80155 -0.942687,0.98151 -0.942687,0.77711 z m 3.175,-3.2245 c 0.493655,-0.50933 0.957085,-0.92605 1.029846,-0.92605 0.07276,0 -0.271608,0.41672 -0.765262,0.92605 -0.493655,0.50932 -0.957086,0.92604 -1.029846,0.92604 -0.07276,0 0.271608,-0.41672 0.765262,-0.92604 z m -50.290857,-0.59532 -0.641432,-0.7276 0.727604,0.64143 c 0.680056,0.59952 0.84894,0.81378 0.641432,0.81378 -0.04739,0 -0.374814,-0.32742 -0.727604,-0.72761 z m 51.878357,-1.22437 c 0,-0.0549 0.20836,-0.2633 0.463021,-0.46302 0.419645,-0.32911 0.429003,-0.31975 0.0999,0.0999 -0.345644,0.44073 -0.562917,0.58089 -0.562917,0.36313 z m 8.48756,-18.57528 c 0.0127,-0.30822 0.0754,-0.37092 0.15985,-0.15985 0.0764,0.19099 0.067,0.4192 -0.0209,0.50712 -0.0879,0.0879 -0.15045,-0.0683 -0.13896,-0.34727 z m 0.28546,-1.69774 c 0,-0.3638 0.0601,-0.51263 0.13346,-0.33073 0.0734,0.1819 0.0734,0.47956 0,0.66146 -0.0734,0.1819 -0.13346,0.0331 -0.13346,-0.33073 z m 0.29849,-2.77813 c 0.002,-0.7276 0.0534,-0.99385 0.11418,-0.59167 0.0608,0.40218 0.0592,0.99749 -0.004,1.32292 -0.0628,0.32542 -0.11255,-0.004 -0.11057,-0.73125 z m -0.004,-5.42395 c 0,-0.65485 0.0516,-0.92274 0.11466,-0.59532 0.0631,0.32743 0.0631,0.86321 0,1.19063 -0.0631,0.32742 -0.11466,0.0595 -0.11466,-0.59531 z m -0.29487,-2.91042 c 0,-0.3638 0.0601,-0.51263 0.13345,-0.33073 0.0734,0.1819 0.0734,0.47956 0,0.66146 -0.0734,0.1819 -0.13345,0.0331 -0.13345,-0.33073 z m -0.26459,-1.85208 c 0,-0.36381 0.0601,-0.51263 0.13346,-0.33073 0.0734,0.1819 0.0734,0.47955 0,0.66146 -0.0734,0.1819 -0.13346,0.0331 -0.13346,-0.33073 z M 93.086503,149.7066 c -0.329107,-0.41965 -0.319749,-0.42901 0.0999,-0.0999 0.254662,0.19972 0.463021,0.40808 0.463021,0.46302 0,0.21776 -0.217273,0.0776 -0.562917,-0.36312 z m -1.309193,-1.5875 -0.641432,-0.72761 0.727605,0.64143 c 0.680055,0.59952 0.848939,0.81378 0.641432,0.81378 -0.04739,0 -0.374814,-0.32742 -0.727605,-0.7276 z m -5.550465,-5.55625 -0.9118,-0.99219 0.992188,0.9118 c 0.545703,0.50149 0.992187,0.94797 0.992187,0.99219 0,0.20204 -0.223895,0.0117 -1.072575,-0.9118 z m -2.780528,-2.51354 -0.777105,-0.8599 0.859896,0.7771 c 0.801545,0.72438 0.981512,0.94269 0.777105,0.94269 -0.04554,0 -0.432488,-0.38695 -0.859896,-0.85989 z m -3.040306,-2.77813 -0.911799,-0.99219 0.992188,0.9118 c 0.545703,0.50149 0.992187,0.94797 0.992187,0.99219 0,0.20204 -0.223895,0.0117 -1.072576,-0.9118 z m -2.400757,-2.64583 c -0.329107,-0.41965 -0.319749,-0.42901 0.0999,-0.0999 0.254661,0.19972 0.463021,0.40808 0.463021,0.46302 0,0.21776 -0.217273,0.0776 -0.562917,-0.36312 z m -4.178694,-8.42257 c 0.0127,-0.30823 0.07539,-0.37092 0.15985,-0.15985 0.07643,0.19099 0.06703,0.41919 -0.02088,0.50711 -0.08792,0.0879 -0.150453,-0.0683 -0.138965,-0.34726 z"
         id="path15703" />
      <path
         styles="fill:#fcc006;stroke-width:0.264583"
         d="m 79.626491,208.6051 c 9.562835,-5.75901 15.798754,-13.17011 19.003202,-22.58444 2.894487,-8.50372 2.846257,-19.17309 -0.122335,-27.05992 -2.3744,-6.3082 -5.513975,-10.32648 -14.482008,-18.53523 -2.310056,-2.11448 -4.90443,-4.68636 -5.765281,-5.7153 -1.709304,-2.04307 -3.73394,-5.90558 -4.135779,-7.89007 l -0.254481,-1.25677 h 2.151369 2.151372 l 0.457324,2.01223 c 1.024491,4.50776 3.186351,7.65542 9.022612,13.13687 9.301432,8.73596 11.480823,11.19469 13.768184,15.53292 2.51935,4.77822 3.6685,9.87838 3.6685,16.28152 0,8.04699 -1.98188,14.80404 -6.231763,21.24666 -4.305573,6.52705 -9.970265,11.23652 -17.278683,14.36503 -2.682909,1.14847 -3.348913,1.30761 -1.952233,0.4665 z"
         id="path15701" />
      <path
         styles="fill:#969696;stroke-width:0.264583"
         d="m 97.221282,203.08628 c 0.26339,-0.29104 0.538421,-0.52917 0.611182,-0.52917 0.07276,0 -0.08321,0.23813 -0.346599,0.52917 -0.26339,0.29104 -0.538422,0.52917 -0.611182,0.52917 -0.07276,0 0.08321,-0.23813 0.346599,-0.52917 z"
         id="path15699" />
      <path
         styles="fill:#e8c800;stroke-width:0.264583"
         d="m 40.698992,200.77118 c -0.329107,-0.41965 -0.319748,-0.42901 0.0999,-0.0999 0.254661,0.19972 0.46302,0.40808 0.46302,0.46302 0,0.21776 -0.217273,0.0776 -0.562917,-0.36312 z m -2.116666,-2.11667 c -0.329107,-0.41964 -0.319749,-0.429 0.0999,-0.0999 0.44073,0.34565 0.580887,0.56292 0.363125,0.56292 -0.05494,0 -0.2633,-0.20836 -0.463021,-0.46302 z m -9.999527,-24.29757 c 0.0127,-0.30822 0.07539,-0.37092 0.15985,-0.15985 0.07643,0.19099 0.06703,0.4192 -0.02088,0.50712 -0.08792,0.0879 -0.150453,-0.0683 -0.138965,-0.34727 z"
         id="path15697" />
      <path
         styles="fill:#f1b706;stroke-width:0.264583"
         d="m 92.987948,200.70503 c 0.263391,-0.29104 0.538422,-0.52917 0.611183,-0.52917 0.07276,0 -0.08321,0.23813 -0.346599,0.52917 -0.26339,0.29104 -0.538422,0.52917 -0.611182,0.52917 -0.07276,0 0.08321,-0.23813 0.346598,-0.52917 z m 1.455209,-1.42281 c 0,-0.0549 0.208359,-0.2633 0.463021,-0.46302 0.419645,-0.32911 0.429003,-0.31975 0.0999,0.0999 -0.345644,0.44073 -0.562917,0.58089 -0.562917,0.36313 z m 10.604223,-25.18986 c 0.0127,-0.30823 0.0754,-0.37092 0.15985,-0.15985 0.0764,0.19099 0.067,0.4192 -0.0209,0.50712 -0.0879,0.0879 -0.15045,-0.0684 -0.13896,-0.34727 z M 91.234407,144.15035 c -0.329108,-0.41965 -0.319749,-0.42901 0.0999,-0.0999 0.440729,0.34564 0.580887,0.56292 0.363124,0.56292 -0.05494,0 -0.2633,-0.20836 -0.46302,-0.46302 z"
         id="path15695" />
      <path
         styles="fill:#01a7f2;stroke-width:0.264583"
         d="m 55.813992,114.76157 c 0,-5.9707 0.007,-6.04583 0.612365,-6.61458 0.601168,-0.56477 0.760306,-0.57529 8.702942,-0.57529 9.207441,0 8.411775,-0.2398 8.411775,2.53518 v 1.69816 l -6.01927,0.008 c -6.307367,0.009 -6.536743,0.0482 -7.166679,1.23096 -0.481401,0.90387 -0.364659,1.83997 0.330298,2.64847 l 0.638099,0.74236 6.108776,0.08 6.108776,0.08 v 2.10284 2.10284 h -8.863541 -8.863541 z"
         id="path15693" />
      <path
         styles="fill:#c6ab00;stroke-width:0.264583"
         d="m 39.012951,147.2592 c 0.568389,-0.58208 1.092967,-1.05833 1.165728,-1.05833 0.07276,0 -0.332756,0.47625 -0.901145,1.05833 -0.568388,0.58208 -1.092967,1.05833 -1.165727,1.05833 -0.07276,0 0.332756,-0.47625 0.901144,-1.05833 z"
         id="path15691" />
      <path
         styles="fill:#777777;stroke-width:0.264583"
         d="m 64.640624,224.78211 c 0,-1.38244 0.04459,-1.94799 0.0991,-1.25677 0.0545,0.69123 0.0545,1.82232 0,2.51354 -0.0545,0.69123 -0.0991,0.12568 -0.0991,-1.25677 z m 4.497916,0 c 0,-1.38244 0.04459,-1.94799 0.0991,-1.25677 0.0545,0.69123 0.0545,1.82232 0,2.51354 -0.0545,0.69123 -0.0991,0.12568 -0.0991,-1.25677 z M 45.098368,135.35295 c 0.26339,-0.29104 0.538421,-0.52917 0.611182,-0.52917 0.07276,0 -0.08321,0.23813 -0.346599,0.52917 -0.26339,0.29104 -0.538422,0.52917 -0.611182,0.52917 -0.07276,0 0.08321,-0.23813 0.346599,-0.52917 z m 43.366526,-0.0661 -0.504029,-0.59532 0.595313,0.50403 c 0.327422,0.27722 0.595312,0.54511 0.595312,0.59531 0,0.21174 -0.212934,0.0554 -0.686596,-0.50402 z"
         id="path15689" />
      <path
         styles="fill:#c79705;stroke-width:0.264583"
         d="m 94.443157,147.12691 c -0.642681,-0.65484 -1.10898,-1.19063 -1.03622,-1.19063 0.07276,0 0.658122,0.53579 1.300803,1.19063 0.642681,0.65484 1.10898,1.19062 1.036219,1.19062 -0.07276,0 -0.658121,-0.53578 -1.300802,-1.19062 z m -6.912917,-6.41615 c -0.329107,-0.41964 -0.319749,-0.429 0.0999,-0.0999 0.44073,0.34564 0.580888,0.56291 0.363125,0.56291 -0.05494,0 -0.2633,-0.20836 -0.463021,-0.46302 z"
         id="path15687" />
      <path
         styles="fill:#018aca;stroke-width:0.264583"
         d="m 73.633522,118.6842 c 0,-1.23692 0.04558,-1.74294 0.101283,-1.12448 0.0557,0.61847 0.0557,1.6305 0,2.24896 -0.0557,0.61846 -0.101283,0.11245 -0.101283,-1.12448 z m -0.0078,-8.46666 c 0,-0.94589 0.04802,-1.33284 0.106715,-0.8599 0.05869,0.47294 0.05869,1.24685 0,1.71979 -0.05869,0.47294 -0.106715,0.086 -0.106715,-0.85989 z m -11.908604,-2.8438 c 2.155335,-0.0445 5.608148,-0.0444 7.672916,2.3e-4 2.064771,0.0447 0.301316,0.0811 -3.918788,0.081 -4.220104,-1.3e-4 -5.909461,-0.0367 -3.754128,-0.0812 z"
         id="path15685" />
      <path
         styles="fill:#ae9001;stroke-width:0.264583"
         d="m 66.083132,211.10762 c 0.190995,-0.0764 0.419198,-0.067 0.507119,0.0209 0.08792,0.0879 -0.06835,0.15045 -0.347266,0.13896 -0.308226,-0.0127 -0.370919,-0.0754 -0.159853,-0.15985 z m 1.322917,0 c 0.190994,-0.0764 0.4192,-0.067 0.507119,0.0209 0.08792,0.0879 -0.06835,0.15045 -0.347266,0.13896 -0.308226,-0.0127 -0.370919,-0.0754 -0.159853,-0.15985 z"
         id="path15683" />
      <path
         styles="fill:#0176ba;stroke-width:0.264583"
         d="m 73.805658,118.6842 v -2.11666 h 2.116666 2.116667 v 2.11666 2.11667 h -2.116667 -2.116666 z m 0,-8.31715 c 0,-0.79089 -0.116115,-1.74339 -0.258035,-2.11666 l -0.258035,-0.67869 h 1.799415 c 2.378014,0 2.949988,0.52913 2.949988,2.72903 v 1.50431 h -2.116667 -2.116666 z"
         id="path15681" />
      <path
         styles="fill:#0070a2;stroke-width:0.264583"
         d="m 55.662158,115.11233 c 1.99e-4,-3.20146 0.0384,-4.47478 0.0849,-2.82961 0.0465,1.64518 0.04633,4.26455 -2.64e-4,5.82083 -0.0468,1.55629 -0.08484,0.21024 -0.08464,-2.99122 z"
         id="path15679" />
      <path
         styles="fill:#535a5d;stroke-width:0.264583"
         d="m 60.311908,101.38968 c 0,-1.03547 0.148366,-1.608146 0.548371,-2.11667 l 0.54837,-0.69714 h 5.517842 5.517843 l 0.54837,0.69714 c 0.400005,0.508524 0.54837,1.0812 0.54837,2.11667 v 1.41952 h -6.614583 -6.614583 z"
         id="path15677" />
      <path
         styles="fill:#877400;stroke-width:0.264583"
         d="m 64.620915,158.23941 c 0.0021,-0.72761 0.05337,-0.99386 0.114186,-0.59168 0.06082,0.40219 0.05919,0.9975 -0.0036,1.32292 -0.0628,0.32542 -0.112559,-0.004 -0.110575,-0.73124 z m 4.497916,0 c 0.0021,-0.72761 0.05337,-0.99386 0.114187,-0.59168 0.06082,0.40219 0.05919,0.9975 -0.0036,1.32292 -0.0628,0.32542 -0.112559,-0.004 -0.110574,-0.73124 z m -4.445558,-21.56354 0.0043,-11.24479 h 2.248958 2.248959 l 0.0043,11.31098 0.0043,11.31099 -0.0733,-11.24484 -0.0733,-11.24484 h -2.110986 -2.110986 l -0.07325,11.17864 -0.07325,11.17865 0.0043,-11.24479 z M 56.68187,125.36856 c 0.695616,-0.0547 1.767179,-0.054 2.38125,0.002 0.614074,0.0555 0.04493,0.10023 -1.264753,0.0994 -1.309688,-7.9e-4 -1.81211,-0.0462 -1.116497,-0.10088 z"
         id="path15675" />
      <path
         styles="fill:#4c5458;stroke-width:0.264583"
         d="m 55.625082,101.88316 c 0.0021,-0.7276 0.05337,-0.99386 0.114186,-0.59167 0.06082,0.40218 0.05919,0.99749 -0.0036,1.32291 -0.06282,0.32542 -0.112572,-0.004 -0.110588,-0.73124 z m 22.489582,0 c 0.0021,-0.7276 0.05337,-0.99386 0.114187,-0.59167 0.06082,0.40218 0.05919,0.99749 -0.0036,1.32291 -0.06281,0.32542 -0.112572,-0.004 -0.110588,-0.73124 z M 64.479096,98.378737 c 1.346067,-0.04802 3.548724,-0.04802 4.894791,0 1.346068,0.04802 0.24474,0.08731 -2.447396,0.08731 -2.692135,0 -3.793463,-0.03929 -2.447395,-0.08731 z"
         id="path15673" />
      <path
         styles="fill:#866802;stroke-width:0.264583"
         d="m 74.938119,125.36856 c 0.695616,-0.0547 1.767179,-0.054 2.38125,0.002 0.614074,0.0555 0.04493,0.10023 -1.264753,0.0994 -1.309687,-7.9e-4 -1.81211,-0.0462 -1.116497,-0.10088 z"
         id="path15671" />
      <path
         styles="fill:#005d92;stroke-width:0.264583"
         d="m 74.008834,107.37995 c 0.475549,-0.0589 1.189924,-0.0577 1.5875,0.003 0.397576,0.0604 0.0085,0.10855 -0.864635,0.10707 -0.873125,-0.001 -1.198414,-0.0509 -0.722865,-0.10977 z"
         id="path15669" />
      <path
         styles="fill:#776600;stroke-width:0.264583"
         d="m 48.141076,138.66024 c 0.341775,-0.3638 0.680939,-0.66146 0.7537,-0.66146 0.07276,0 -0.147341,0.29766 -0.489117,0.66146 -0.341775,0.3638 -0.68094,0.66146 -0.7537,0.66146 -0.07276,0 0.147341,-0.29766 0.489117,-0.66146 z"
         id="path15667" />
      <path
         styles="fill:#454545;stroke-width:0.264583"
         d="m 66.083132,215.60554 c 0.190995,-0.0764 0.419198,-0.067 0.507119,0.0209 0.08792,0.0879 -0.06835,0.15045 -0.347266,0.13896 -0.308226,-0.0127 -0.370919,-0.0754 -0.159853,-0.15985 z m 1.322917,0 c 0.190994,-0.0764 0.4192,-0.067 0.507119,0.0209 0.08792,0.0879 -0.06835,0.15045 -0.347266,0.13896 -0.308226,-0.0127 -0.370919,-0.0754 -0.159853,-0.15985 z m 15.238568,-96.39217 c 0,-2.40109 0.04011,-3.38336 0.08914,-2.18281 0.04902,1.20054 0.04902,3.16507 0,4.36562 -0.04903,1.20055 -0.08914,0.21828 -0.08914,-2.18281 z m -31.477571,-2.91042 c 0,-3.8563 0.03699,-5.43388 0.0822,-3.50573 0.04521,1.92815 0.04521,5.08331 0,7.01146 -0.04521,1.92815 -0.0822,0.35057 -0.0822,-3.50573 z m 31.460563,-4.89479 c 0.0011,-1.16417 0.04748,-1.6075 0.10337,-0.98519 0.05589,0.62231 0.0551,1.57481 -0.0019,2.11666 -0.05675,0.54186 -0.102478,0.0327 -0.101518,-1.13147 z"
         id="path15665" />
      <path
         styles="fill:#665600;stroke-width:0.264583"
         d="m 60.122999,158.23941 c 0.0021,-0.72761 0.05337,-0.99386 0.114186,-0.59168 0.06082,0.40219 0.05919,0.9975 -0.0036,1.32292 -0.0628,0.32542 -0.112559,-0.004 -0.110574,-0.73124 z m 13.493749,0 c 0.0021,-0.72761 0.05337,-0.99386 0.114186,-0.59168 0.06082,0.40219 0.05919,0.9975 -0.0036,1.32292 -0.0628,0.32542 -0.112559,-0.004 -0.110575,-0.73124 z M 60.168631,136.80816 c 6.1e-5,-6.2574 0.03467,-8.77942 0.0769,-5.6045 0.04224,3.17493 0.04219,8.29461 -1.14e-4,11.37709 -0.0423,3.08247 -0.07685,0.48481 -0.07679,-5.77259 z m 13.49375,0 c 6e-5,-6.2574 0.03467,-8.77942 0.0769,-5.6045 0.04224,3.17493 0.04219,8.29461 -1.13e-4,11.37709 -0.0423,3.08247 -0.07685,0.48481 -0.07679,-5.77259 z"
         id="path15663" />
      <path
         styles="fill:#004769;stroke-width:0.264583"
         d="m 60.096532,120.86754 c 2.428158,-0.0436 6.476283,-0.0437 8.995833,-1.7e-4 2.51955,0.0435 0.532876,0.0792 -4.414832,0.0793 -4.947708,1e-4 -7.009159,-0.0355 -4.581001,-0.0791 z m 18.034907,-2.18334 c 0,-1.23692 0.04558,-1.74294 0.101282,-1.12448 0.0557,0.61847 0.0557,1.6305 0,2.24896 -0.05571,0.61846 -0.101282,0.11245 -0.101282,-1.12448 z m -13.123177,-2.31418 c 1.63711,-0.0464 4.316016,-0.0464 5.953125,0 1.637109,0.0464 0.297656,0.0844 -2.976562,0.0844 -3.274219,0 -4.613672,-0.038 -2.976563,-0.0844 z m 13.110014,-5.8879 c 0,-0.80037 0.0496,-1.12779 0.110223,-0.7276 0.06062,0.40018 0.06062,1.05502 0,1.4552 -0.06062,0.40019 -0.110223,0.0728 -0.110223,-0.7276 z"
         id="path15661" />
      <path
         styles="fill:#363637;stroke-width:0.264583"
         d="m 60.122999,101.61858 c 0.0021,-0.72761 0.05337,-0.99386 0.114186,-0.59168 0.06082,0.40219 0.05919,0.9975 -0.0036,1.32292 -0.06281,0.32542 -0.112572,-0.004 -0.110587,-0.73124 z m 13.493749,0 c 0.0021,-0.72761 0.05337,-0.99386 0.114186,-0.59168 0.06082,0.40219 0.05919,0.9975 -0.0036,1.32292 -0.06282,0.32542 -0.112572,-0.004 -0.110588,-0.73124 z"
         id="path15659" />
      <path
         styles="fill:#00324e;stroke-width:0.264583"
         d="m 74.665554,120.87097 c 0.691223,-0.0545 1.822317,-0.0545 2.513541,0 0.691224,0.0545 0.125677,0.0991 -1.256771,0.0991 -1.382448,0 -1.947994,-0.0446 -1.25677,-0.0991 z m 0.272565,-4.49824 c 0.695616,-0.0547 1.767179,-0.054 2.38125,10e-4 0.614074,0.0555 0.04493,0.10023 -1.264753,0.0994 -1.309687,-7.9e-4 -1.81211,-0.0462 -1.116497,-0.10089 z"
         id="path15657" />
      <path
         styles="fill:#262626;stroke-width:0.264583"
         d="m 13.81139,170.61264 c 0.691224,-0.0545 1.822317,-0.0545 2.513541,0 0.691224,0.0545 0.125677,0.0991 -1.25677,0.0991 -1.382448,0 -1.947995,-0.0446 -1.256771,-0.0991 z m 103.71666,0 c 0.69123,-0.0545 1.82232,-0.0545 2.51354,0 0.69123,0.0545 0.12568,0.0991 -1.25677,0.0991 -1.38245,0 -1.94799,-0.0446 -1.25677,-0.0991 z M 35.970243,143.95191 c 0.493654,-0.50932 0.957085,-0.92604 1.029846,-0.92604 0.07276,0 -0.271608,0.41672 -0.765263,0.92604 -0.493654,0.50932 -0.957085,0.92604 -1.029845,0.92604 -0.07276,0 0.271608,-0.41672 0.765262,-0.92604 z m 61.498977,-0.19844 -0.777105,-0.85989 0.859896,0.7771 c 0.801544,0.72437 0.981511,0.94269 0.777105,0.94269 -0.04554,0 -0.432488,-0.38696 -0.859896,-0.8599 z"
         id="path15655" />
      <path
         styles="fill:#161616;stroke-width:0.264583"
         d="m 82.557796,114.03195 c 0.0127,-0.30823 0.07539,-0.37092 0.159851,-0.15986 0.07643,0.191 0.06703,0.4192 -0.02088,0.50712 -0.08792,0.0879 -0.150452,-0.0683 -0.138964,-0.34726 z M 75.888574,95.731599 c -0.329107,-0.419644 -0.319749,-0.429002 0.0999,-0.0999 0.44073,0.345644 0.580888,0.562916 0.363125,0.562916 -0.05494,0 -0.2633,-0.208359 -0.463021,-0.463021 z"
         id="path15653" />
      <path
         styles="fill:#181300;stroke-width:0.264583"
         d="m 94.687714,147.06076 -0.641432,-0.7276 0.727604,0.64143 c 0.400182,0.35279 0.727604,0.68021 0.727604,0.72761 0,0.2075 -0.21426,0.0386 -0.813776,-0.64144 z m -55.674763,-0.0661 c 0.26339,-0.29104 0.538422,-0.52917 0.611182,-0.52917 0.07276,0 -0.08321,0.23813 -0.346599,0.52917 -0.26339,0.29104 -0.538421,0.52916 -0.611182,0.52916 -0.07276,0 0.08321,-0.23812 0.346599,-0.52916 z"
         id="path15651" />
      <path
         styles="fill:#0a0b0b;stroke-width:0.264583"
         d="m 37.788576,204.21076 c -0.329107,-0.41964 -0.319749,-0.429 0.0999,-0.0999 0.254661,0.19973 0.463021,0.40808 0.463021,0.46303 0,0.21776 -0.217273,0.0776 -0.562917,-0.36313 z m 57.712914,0.36313 c 0,-0.055 0.208359,-0.2633 0.463021,-0.46303 0.419645,-0.3291 0.429003,-0.31974 0.0999,0.0999 -0.345644,0.44073 -0.562917,0.58089 -0.562917,0.36313 z m -60.094164,-2.74438 c -0.329107,-0.41964 -0.319749,-0.429 0.0999,-0.0999 0.44073,0.34565 0.580888,0.56292 0.363125,0.56292 -0.05494,0 -0.2633,-0.20836 -0.463021,-0.46302 z m 28.013436,-98.95347 c 1.928151,-0.0452 5.083307,-0.0452 7.011458,0 1.928151,0.0452 0.350573,0.0822 -3.505729,0.0822 -3.856301,0 -5.43388,-0.037 -3.505729,-0.0822 z"
         id="path15649" />
      <path
         styles="fill:#000b10;stroke-width:0.264583"
         d="m 66.066596,111.87172 c 2.219192,-0.0443 5.850598,-0.0443 8.069791,0 2.219193,0.0443 0.403489,0.0805 -4.034896,0.0805 -4.438385,0 -6.254088,-0.0362 -4.034895,-0.0805 z m -10.252604,-3.60616 c 0,-0.0549 0.208359,-0.2633 0.463021,-0.46302 0.419645,-0.32911 0.429003,-0.31975 0.0999,0.0999 -0.345644,0.44073 -0.562917,0.58089 -0.562917,0.36313 z"
         id="path15647" />
      <path
         styles="fill:#000000;stroke-width:0.264583"
         d="m 65.358195,228.31831 c -0.477954,-0.60762 -0.54837,-1.06439 -0.54837,-3.55712 0,-2.61765 0.0525,-2.92102 0.619585,-3.58029 0.442714,-0.51469 0.870077,-0.72031 1.497081,-0.72031 0.627005,0 1.054368,0.20562 1.497082,0.72031 0.567086,0.65927 0.619585,0.96264 0.619585,3.58029 0,2.49273 -0.07042,2.9495 -0.54837,3.55712 -0.422979,0.53773 -0.78159,0.69714 -1.568297,0.69714 -0.786706,0 -1.145317,-0.15941 -1.568296,-0.69714 z m -26.838729,-6.99498 c -1.086464,-0.85462 -0.936241,-1.941 0.636598,-4.60388 1.464511,-2.47947 2.268323,-3.19924 3.28722,-2.94351 0.889366,0.22322 1.729042,1.17579 1.729042,1.96151 0,0.35483 -0.499377,1.55277 -1.109726,2.66209 -1.858476,3.37781 -3.017594,4.12378 -4.543134,2.92379 z m 54.102648,-0.17924 c -0.997495,-1.00523 -2.941457,-4.61136 -2.941457,-5.45653 0,-1.41621 1.853144,-2.42484 3.033813,-1.65123 0.35679,0.23378 1.248891,1.44118 1.982449,2.68312 1.572839,2.66288 1.723061,3.74926 0.636598,4.60388 -0.950622,0.74776 -1.850575,0.68827 -2.711403,-0.17924 z m -32.08015,-6.01294 c -16.71049,-2.72468 -30.085047,-14.50113 -34.713575,-30.5657 -1.178904,-4.09171 -1.581052,-7.17977 -1.567739,-12.03854 0.02475,-9.03217 2.166067,-16.09282 6.894444,-22.7333 1.621702,-2.2775 5.724265,-6.51201 12.137439,-12.5278 4.426143,-4.15188 6.06675,-6.29916 7.187224,-9.40688 0.673372,-1.86764 0.686887,-2.04794 0.826587,-11.02681 0.13543,-8.70435 0.168534,-9.17726 0.713105,-10.18646 0.66674,-1.23561 1.724935,-2.27662 2.934647,-2.887 0.848799,-0.42828 0.859896,-0.45815 0.859896,-2.31462 0,-2.524973 0.409374,-3.736034 1.777121,-5.257298 1.849837,-2.057464 2.614703,-2.24108 9.335378,-2.24108 6.720676,0 7.485541,0.183616 9.335378,2.24108 1.367748,1.521264 1.777122,2.732325 1.777122,5.257298 0,1.85647 0.01109,1.88634 0.859896,2.31462 1.209712,0.61038 2.267907,1.65139 2.934647,2.887 0.54457,1.0092 0.577675,1.48211 0.713105,10.18646 0.138832,8.9231 0.157059,9.1698 0.811482,10.98338 1.12372,3.11414 2.353559,4.73316 6.931488,9.12495 10.497391,10.07058 12.580091,12.4442 15.099611,17.20883 1.60217,3.02982 2.99505,7.1667 3.64881,10.837 0.72185,4.05253 0.76869,10.89139 0.10058,14.68438 -3.13315,17.78749 -16.089035,31.28067 -33.676317,35.07292 -3.389436,0.73084 -11.519764,0.94204 -14.920329,0.38757 z m 12.073069,-4.24306 c 14.460584,-2.17063 26.21433,-12.09481 30.823997,-26.02597 1.38252,-4.17822 1.88837,-7.45021 1.88109,-12.16748 -0.0109,-7.06401 -0.98892,-11.39612 -3.78848,-16.78102 -2.170649,-4.17522 -5.037087,-7.45353 -12.268107,-14.03087 -5.962969,-5.42393 -8.116138,-8.10478 -9.707583,-12.08667 -0.378179,-0.94622 -0.770482,-2.34521 -0.871781,-3.10885 l -0.184184,-1.38844 H 76.02053 73.541074 v 11.65905 c 0,6.95788 -0.102608,11.85079 -0.254471,12.13455 -0.139959,0.26152 -0.616209,0.62532 -1.058333,0.80846 -1.019752,0.42239 -2.188781,-0.002 -2.621624,-0.95219 -0.207499,-0.45541 -0.298905,-4.17177 -0.298905,-12.15295 v -11.49692 h -2.38125 -2.381249 v 11.49692 c 0,7.98118 -0.09141,11.69754 -0.298906,12.15295 -0.432842,0.94998 -1.601872,1.37458 -2.621623,0.95219 -0.442124,-0.18314 -0.918374,-0.54694 -1.058334,-0.80846 -0.151863,-0.28376 -0.254471,-5.17667 -0.254471,-12.13455 v -11.65905 h -2.453203 -2.453201 l -0.333369,1.78593 c -0.363138,1.9454 -1.647703,4.89374 -2.996523,6.87762 -1.565441,2.30249 -3.648167,4.47759 -8.642775,9.02611 -6.736442,6.13477 -9.305668,9.2097 -11.637467,13.92804 -2.351305,4.75782 -3.252216,9.11482 -3.262506,15.77815 -0.0073,4.71727 0.498568,7.98926 1.881092,12.16748 4.579525,13.84008 16.277833,23.78295 30.603885,26.01149 3.157987,0.49125 8.377565,0.49776 11.597192,0.0145 z M 60.887195,160.66975 c -0.481164,-0.51217 -0.575287,-0.92538 -0.575287,-2.52557 0,-1.67852 0.07966,-1.99286 0.649433,-2.56263 0.409372,-0.40937 0.951728,-0.64943 1.467234,-0.64943 0.515506,0 1.057862,0.24006 1.467234,0.64943 0.564218,0.56422 0.649433,0.88934 0.649433,2.47786 0,1.44914 -0.113753,1.97304 -0.548371,2.52557 -0.732467,0.93118 -2.275011,0.97323 -3.109676,0.0848 z m 8.968916,-0.0848 c -0.434617,-0.55253 -0.54837,-1.07643 -0.54837,-2.52557 0,-1.58852 0.08522,-1.91364 0.649433,-2.47786 0.409372,-0.40937 0.951728,-0.64943 1.467234,-0.64943 0.515506,0 1.057862,0.24006 1.467233,0.64943 0.564219,0.56422 0.649433,0.88934 0.649433,2.47786 0,2.34602 -0.575807,3.22271 -2.116666,3.22271 -0.786707,0 -1.145318,-0.15941 -1.568297,-0.69714 z m 8.447463,-41.90078 v -2.38125 h -8.3464 -8.346402 l -0.649431,-0.64943 c -0.857377,-0.85738 -0.876048,-2.22043 -0.04116,-3.00477 0.593124,-0.55721 0.815499,-0.57319 8.929687,-0.64143 l 8.321413,-0.07 0.07754,-1.60618 c 0.06962,-1.4422 0.0052,-1.67854 -0.631391,-2.3151 l -0.708932,-0.70893 H 66.878385 56.848272 l -0.64943,0.64943 -0.649433,0.64943 v 6.22974 6.22973 h 11.377082 11.377083 z m -4.497916,-17.08302 c 0,-1.51857 -0.306052,-2.39077 -1.035405,-2.95075 -0.445444,-0.342001 -10.680048,-0.497282 -11.52045,-0.174789 -0.703913,0.270117 -1.202478,1.567779 -1.202478,3.129799 v 1.46835 h 6.879166 6.879167 z m -55.129941,99.8784 c -0.739566,-0.58174 -0.927429,-1.70195 -0.438602,-2.61534 0.256108,-0.47854 3.748737,-2.65435 5.044561,-3.14262 0.965687,-0.36388 2.228266,0.22794 2.568506,1.20395 0.492578,1.413 -0.09497,2.16927 -2.886956,3.71598 -1.376439,0.76252 -2.74736,1.3864 -3.046493,1.3864 -0.299132,0 -0.857589,-0.24677 -1.241016,-0.54837 z m 92.197203,-0.84275 c -2.77513,-1.54711 -3.36063,-2.30419 -2.87012,-3.71126 0.34024,-0.97601 1.60282,-1.56783 2.56851,-1.20395 1.29582,0.48827 4.78845,2.66408 5.04456,3.14262 0.68271,1.27565 -0.30254,3.16621 -1.64767,3.16165 -0.33403,-0.001 -1.72691,-0.62621 -3.09528,-1.38906 z M 11.974731,174.7733 c -0.905568,-0.36477 -1.480126,-1.43201 -1.274629,-2.36763 0.299302,-1.36272 0.945678,-1.59858 4.380809,-1.59858 2.866945,0 3.10806,0.0405 3.645296,0.61236 0.97455,1.03736 0.732707,2.5954 -0.50197,3.23388 -0.83903,0.43388 -5.25952,0.51874 -6.249506,0.11997 z m 103.767379,-0.0261 c -1.34201,-0.76518 -1.6205,-2.38567 -0.57826,-3.36481 0.55592,-0.52225 0.89468,-0.57528 3.67486,-0.57528 3.42918,0 4.04715,0.24842 4.33538,1.74277 0.12227,0.63394 0.009,0.98923 -0.50492,1.5875 -0.6472,0.75302 -0.72847,0.77239 -3.53017,0.84115 -1.79005,0.0439 -3.06658,-0.043 -3.39689,-0.23133 z M 21.285869,148.95092 c -1.164167,-0.67718 -2.384557,-1.47467 -2.711979,-1.77218 -0.760405,-0.69096 -0.796759,-2.09934 -0.07288,-2.82322 1.013659,-1.01366 1.681692,-0.94805 4.034949,0.39627 2.853908,1.63034 3.380114,2.12627 3.380114,3.18568 0,1.0741 -0.695484,1.92549 -1.719792,2.10533 -0.617896,0.10848 -1.262692,-0.13342 -2.910416,-1.09188 z m 87.348181,0.67033 c -0.53189,-0.41839 -0.69714,-0.78376 -0.69714,-1.54138 0,-1.21999 0.42859,-1.64198 3.38011,-3.32808 2.35326,-1.34432 3.02129,-1.40993 4.03495,-0.39627 0.72379,0.72378 0.68745,2.13199 -0.0729,2.82442 -0.92048,0.83827 -4.81665,2.98968 -5.41427,2.98968 -0.2935,0 -0.84735,-0.24677 -1.23077,-0.54837 z"
         id="path15645" />
    </g>
  </g>
</svg>
