<svg id="visual" viewBox="0 0 900 200" width="900" height="200" xmlns="http://www.w3.org/2000/svg" xmlns:xlink="http://www.w3.org/1999/xlink" version="1.1"><path d="M0 128L18.8 133C37.7 138 75.3 148 112.8 151C150.3 154 187.7 150 225.2 144.3C262.7 138.7 300.3 131.3 337.8 126.3C375.3 121.3 412.7 118.7 450.2 120.7C487.7 122.7 525.3 129.3 562.8 136C600.3 142.7 637.7 149.3 675.2 148C712.7 146.7 750.3 137.3 787.8 135.7C825.3 134 862.7 140 881.3 143L900 146L900 0L881.3 0C862.7 0 825.3 0 787.8 0C750.3 0 712.7 0 675.2 0C637.7 0 600.3 0 562.8 0C525.3 0 487.7 0 450.2 0C412.7 0 375.3 0 337.8 0C300.3 0 262.7 0 225.2 0C187.7 0 150.3 0 112.8 0C75.3 0 37.7 0 18.8 0L0 0Z" fill="#42515b"></path><path d="M0 133L18.8 132.3C37.7 131.7 75.3 130.3 112.8 126.2C150.3 122 187.7 115 225.2 108C262.7 101 300.3 94 337.8 93.2C375.3 92.3 412.7 97.7 450.2 99.8C487.7 102 525.3 101 562.8 101.3C600.3 101.7 637.7 103.3 675.2 102C712.7 100.7 750.3 96.3 787.8 101.8C825.3 107.3 862.7 122.7 881.3 130.3L900 138L900 0L881.3 0C862.7 0 825.3 0 787.8 0C750.3 0 712.7 0 675.2 0C637.7 0 600.3 0 562.8 0C525.3 0 487.7 0 450.2 0C412.7 0 375.3 0 337.8 0C300.3 0 262.7 0 225.2 0C187.7 0 150.3 0 112.8 0C75.3 0 37.7 0 18.8 0L0 0Z" fill="#3e4c56"></path><path d="M0 111L18.8 105.8C37.7 100.7 75.3 90.3 112.8 87.7C150.3 85 187.7 90 225.2 91.7C262.7 93.3 300.3 91.7 337.8 94.5C375.3 97.3 412.7 104.7 450.2 104.7C487.7 104.7 525.3 97.3 562.8 93C600.3 88.7 637.7 87.3 675.2 84.2C712.7 81 750.3 76 787.8 77.7C825.3 79.3 862.7 87.7 881.3 91.8L900 96L900 0L881.3 0C862.7 0 825.3 0 787.8 0C750.3 0 712.7 0 675.2 0C637.7 0 600.3 0 562.8 0C525.3 0 487.7 0 450.2 0C412.7 0 375.3 0 337.8 0C300.3 0 262.7 0 225.2 0C187.7 0 150.3 0 112.8 0C75.3 0 37.7 0 18.8 0L0 0Z" fill="#3b4751"></path><path d="M0 63L18.8 64.5C37.7 66 75.3 69 112.8 69.8C150.3 70.7 187.7 69.3 225.2 65.8C262.7 62.3 300.3 56.7 337.8 55.2C375.3 53.7 412.7 56.3 450.2 58C487.7 59.7 525.3 60.3 562.8 59.8C600.3 59.3 637.7 57.7 675.2 61.7C712.7 65.7 750.3 75.3 787.8 79.7C825.3 84 862.7 83 881.3 82.5L900 82L900 0L881.3 0C862.7 0 825.3 0 787.8 0C750.3 0 712.7 0 675.2 0C637.7 0 600.3 0 562.8 0C525.3 0 487.7 0 450.2 0C412.7 0 375.3 0 337.8 0C300.3 0 262.7 0 225.2 0C187.7 0 150.3 0 112.8 0C75.3 0 37.7 0 18.8 0L0 0Z" fill="#37424b"></path><path d="M0 32L18.8 35.8C37.7 39.7 75.3 47.3 112.8 47.8C150.3 48.3 187.7 41.7 225.2 39C262.7 36.3 300.3 37.7 337.8 40.7C375.3 43.7 412.7 48.3 450.2 50.2C487.7 52 525.3 51 562.8 49.8C600.3 48.7 637.7 47.3 675.2 49.7C712.7 52 750.3 58 787.8 59.3C825.3 60.7 862.7 57.3 881.3 55.7L900 54L900 0L881.3 0C862.7 0 825.3 0 787.8 0C750.3 0 712.7 0 675.2 0C637.7 0 600.3 0 562.8 0C525.3 0 487.7 0 450.2 0C412.7 0 375.3 0 337.8 0C300.3 0 262.7 0 225.2 0C187.7 0 150.3 0 112.8 0C75.3 0 37.7 0 18.8 0L0 0Z" fill="#343d46"></path><path d="M0 22L18.8 24.2C37.7 26.3 75.3 30.7 112.8 34C150.3 37.3 187.7 39.7 225.2 40C262.7 40.3 300.3 38.7 337.8 34.5C375.3 30.3 412.7 23.7 450.2 23.2C487.7 22.7 525.3 28.3 562.8 28C600.3 27.7 637.7 21.3 675.2 21.5C712.7 21.7 750.3 28.3 787.8 30.8C825.3 33.3 862.7 31.7 881.3 30.8L900 30L900 0L881.3 0C862.7 0 825.3 0 787.8 0C750.3 0 712.7 0 675.2 0C637.7 0 600.3 0 562.8 0C525.3 0 487.7 0 450.2 0C412.7 0 375.3 0 337.8 0C300.3 0 262.7 0 225.2 0C187.7 0 150.3 0 112.8 0C75.3 0 37.7 0 18.8 0L0 0Z" fill="#303841"></path></svg>