<svg
   width="69.346069mm"
   height="127.93671mm"
   viewBox="0 0 69.34607 127.93671"
   version="1.1"
   id="svg5"
   >
  <g
     id="layer1"
     transform="translate(-64.058823,-45.451395)">
    <path
       style="fill:#000000;stroke-width:0.264583"
       d="m 71.079065,172.72997 c -0.727604,-0.35034 -1.436121,-0.67634 -1.574485,-0.72444 -0.140782,-0.0489 -0.06715,-0.48748 0.167193,-0.99579 1.137586,-2.46753 1.142709,-2.53653 1.142709,-15.39434 v -12.36934 l 2.513541,-7e-5 2.513542,-6e-5 -0.0624,11.57565 c -0.06276,11.64219 -0.203766,13.68885 -1.075687,15.61328 -0.716773,1.582 -1.657028,2.97561 -1.992345,2.95297 -0.170031,-0.0115 -0.904462,-0.30751 -1.632066,-0.65786 z m 11.080517,-2.87637 c -1.166501,-0.50769 -2.185091,-1.95925 -2.381769,-3.39419 -0.273973,-1.99883 0.0623,-3.0277 1.43923,-4.40348 1.402123,-1.40094 3.878495,-2.46656 6.960042,-2.99499 l 1.819687,-0.31204 v -1.41449 c 0,-0.77797 -0.180609,-1.76375 -0.401354,-2.19062 -1.055309,-2.04074 -4.35121,-2.08101 -7.367293,-0.09 -0.561973,0.37097 -1.107448,0.5747 -1.212168,0.45273 -0.20465,-0.23837 -0.808767,-2.22808 -0.808767,-2.66373 0,-0.44894 3.120117,-1.69148 5.351142,-2.13102 3.580762,-0.70544 6.771319,0.14025 8.100072,2.14703 l 0.703993,1.06322 0.07712,8.19056 0.07712,8.19056 -1.384464,-0.13303 c -1.077426,-0.10352 -1.519944,-0.29053 -1.995347,-0.84322 -0.335984,-0.3906 -0.610881,-0.88214 -0.610881,-1.09231 0,-0.53723 -0.604411,-0.47492 -1.390388,0.14333 -0.3674,0.289 -1.263951,0.82478 -1.992336,1.19062 -1.5074,0.75713 -3.621217,0.87805 -4.983633,0.28508 z m 6.448128,-3.3319 1.389062,-0.79662 v -2.3759 c 0,-1.30674 -0.05367,-2.3759 -0.119268,-2.3759 -0.610135,0 -3.116271,0.6919 -3.849481,1.06278 -1.606228,0.81247 -2.017416,1.54692 -1.893232,3.38163 0.05962,0.88078 1.278586,1.90608 2.262595,1.90311 0.451694,-0.001 1.44634,-0.36096 2.210324,-0.7991 z m 31.53084,3.11039 c -1.47957,-0.99709 -2.09595,-2.15751 -2.09595,-3.94598 0,-3.4794 2.22698,-5.28537 8.0698,-6.54419 l 2.11666,-0.45603 0.0805,-1.23351 c 0.15948,-2.44443 -1.18158,-3.88743 -3.61279,-3.88743 -1.03891,0 -1.78606,0.23393 -3.37756,1.05749 -1.12395,0.58162 -2.06138,1.02811 -2.08319,0.99219 -0.1398,-0.23033 -0.66423,-2.31431 -0.66423,-2.63956 0,-0.53604 2.71068,-1.72139 5.09072,-2.22611 4.43296,-0.94008 8.07587,0.51039 8.92055,3.55181 0.15643,0.56322 0.27391,4.00747 0.27475,8.05478 l 0.002,7.07081 -0.78061,0.40367 c -0.42945,0.22202 -0.95609,0.40367 -1.17043,0.40367 -0.53785,0 -2.01782,-1.28472 -2.01782,-1.75162 0,-0.68152 -0.7477,-0.69143 -1.6407,-0.0217 -2.52368,1.8926 -5.35043,2.35837 -7.11127,1.17174 z m 6.18542,-2.73663 c 1.83172,-0.92548 2.03738,-1.30092 2.03738,-3.71934 0,-1.21156 -0.0893,-2.20108 -0.19843,-2.19893 -0.10914,0.002 -0.97235,0.18609 -1.91823,0.40876 -2.94253,0.69269 -4.22077,1.99749 -3.85689,3.93708 0.32928,1.75524 2.1415,2.47918 3.93617,1.57243 z m -25.6821,-6.09774 c -1.930564,-5.06943 -3.508142,-9.35059 -3.505732,-9.51369 0.0026,-0.17413 0.796245,-0.37236 1.922613,-0.48021 1.055029,-0.10102 2.186119,-0.24837 2.513539,-0.32745 0.42395,-0.1024 0.59532,-0.0252 0.59532,0.268 0,0.22648 0.81933,2.94806 1.82073,6.04795 1.00141,3.0999 1.9681,6.27088 2.14819,7.04663 0.19573,0.84305 0.42391,1.31399 0.56723,1.17067 0.13189,-0.13188 0.52877,-1.30237 0.88197,-2.60108 0.3532,-1.29871 1.34493,-4.44489 2.20384,-6.99151 l 1.56165,-4.63021 1.90543,0.037 c 1.04798,0.0203 1.95535,0.0869 2.01637,0.14793 0.061,0.061 -0.4949,1.53266 -1.23538,3.2703 -0.74048,1.73765 -2.40022,5.88362 -3.68831,9.21328 -1.2881,3.32965 -2.38299,6.09491 -2.43308,6.14501 -0.0501,0.0501 -0.91756,0.16386 -1.92768,0.2528 l -1.83659,0.16173 z m -9.851348,-22.05484 c -4.506142,-0.25176 -7.460246,-0.63738 -10.318749,-1.34699 -4.037272,-1.00223 -3.495799,-1.28884 1.455208,-0.77027 5.37364,0.56283 15.949617,0.82322 21.619559,0.53229 12.44553,-0.6386 20.81759,-2.35893 27.89739,-5.73248 l 1.62737,-0.77545 -0.25453,0.67571 c -0.88123,2.33939 -4.976,4.53339 -10.61214,5.68602 -6.05839,1.23898 -23.258316,2.18683 -31.414108,1.73117 z m -8.451815,-4.78367 c -8.08492,-0.41945 -14.864981,-1.48689 -17.03924,-2.68265 -3.966837,-2.18159 2.148591,-6.33446 10.277514,-6.97926 2.401877,-0.19053 2.446171,0.0874 0.132292,0.83011 -2.23748,0.71818 -4.715375,1.95477 -5.144412,2.5673 -0.618094,0.88246 -0.08727,1.4522 1.909516,2.0495 8.34771,2.49708 30.573513,2.49049 48.036653,-0.0142 5.28444,-0.75796 7.58574,-1.78567 7.58574,-3.38764 0,-0.62034 0.0331,-0.63896 0.42995,-0.24208 1.11907,1.11907 0.18931,2.66114 -2.3937,3.97008 -6.06532,3.07362 -25.77439,4.82375 -43.794313,3.88887 z m 10.833065,-8.98072 c -4.667498,-0.27617 -7.345558,-0.90169 -9.718571,-2.26998 -2.479207,-1.42953 -2.212668,-2.95894 0.782516,-4.49013 l 1.250402,-0.63922 -0.146984,0.73491 c -0.200541,1.00272 0.439711,1.52506 2.552351,2.08232 2.713585,0.71577 10.801344,0.64042 16.392784,-0.15274 l 4.36563,-0.61926 1.23637,0.83567 c 0.68,0.45962 1.69203,1.02799 2.24896,1.26303 l 1.01258,0.42735 -1.05833,0.37206 c -1.95863,0.68857 -6.06501,1.63163 -8.86354,2.03558 -3.815277,0.55072 -6.180356,0.64961 -10.054168,0.42041 z m -4.971028,-10.57481 c -3.261334,-0.33956 -5.032454,-0.75609 -6.834005,-1.6072 -1.736217,-0.82025 -2.048978,-1.09315 -2.340041,-2.04181 -0.245988,-0.80174 1.115579,-2.11603 3.006061,-2.90168 l 1.362781,-0.56634 -0.40355,0.57614 c -0.508357,0.72579 -0.517874,1.62165 -0.02159,2.03353 1.011798,0.83971 3.222511,1.11899 9.973841,1.25998 7.271389,0.15184 11.066659,-0.0949 15.750579,-1.02422 l 2.69074,-0.53384 1.4103,1.1101 c 0.77566,0.61055 1.44414,1.19867 1.48552,1.30694 0.0816,0.21353 -4.0174,1.07725 -9.07106,1.91141 -3.60361,0.59482 -13.273435,0.86598 -17.009568,0.47699 z m 32.090816,-1.39159 c 0.29104,-0.20114 1.26521,-0.80679 2.16482,-1.34589 2.26668,-1.35835 5.37336,-4.33181 6.29487,-6.02493 0.60916,-1.11922 0.76766,-1.74374 0.76766,-3.02473 0,-3.824588 -2.69132,-6.204459 -6.64558,-5.876543 -0.76513,0.06345 -1.39114,0.07822 -1.39114,0.03283 0,-0.0454 0.48494,-0.329936 1.07764,-0.632309 3.16457,-1.614443 8.87117,0.356131 10.32957,3.566958 1.28141,2.821154 0.13862,6.138794 -3.03585,8.813394 -1.92321,1.62037 -6.8705,4.10639 -9.2974,4.67195 -0.73428,0.17111 -0.7541,0.15757 -0.26459,-0.18073 z M 84.705106,104.71885 C 76.964335,104.182 71.740523,102.9952 71.740523,101.7734 c 0,-0.68499 1.449615,-1.992766 3.151463,-2.843113 2.137423,-1.067985 6.112377,-1.992101 9.151662,-2.127615 l 2.645833,-0.117973 -1.818886,0.383686 c -4.472937,0.943546 -7.148864,2.396426 -6.533052,3.547085 0.62578,1.16927 4.149715,1.61952 12.585271,1.60797 11.520376,-0.0158 19.159036,-0.51535 24.161936,-1.58024 2.58547,-0.55033 2.60985,-0.54969 1.51419,0.0398 -2.23361,1.20165 -6.08448,2.23786 -10.69053,2.87666 -5.55774,0.77078 -17.438466,1.42032 -21.203304,1.15923 z m 18.468624,-6.627594 c 0.88156,-1.114269 1.63971,-3.353694 1.63971,-4.843383 0,-1.360585 -0.84558,-2.84 -2.40087,-4.200533 -2.604659,-2.278488 -3.581088,-4.836183 -3.35616,-8.791233 0.103311,-1.816579 0.291097,-2.606823 0.943091,-3.96875 1.574989,-3.289916 4.792449,-6.066538 10.102079,-8.71793 2.29804,-1.147536 6.87272,-3.002643 7.02614,-2.849216 0.047,0.04696 -1.01375,0.758419 -2.35714,1.581014 -2.87808,1.762323 -6.26257,4.439143 -7.75167,6.130839 -0.5835,0.662892 -1.46128,1.954678 -1.95064,2.870636 -0.75786,1.418553 -0.88712,1.920266 -0.87213,3.385169 0.0227,2.219833 0.49474,3.287651 2.34116,5.296098 3.43975,3.741584 3.8041,7.498339 1.08543,11.191565 -0.60054,0.815814 -3.21854,2.879077 -4.48251,3.532703 L 102.37084,99.1061 Z M 87.036747,96.498795 c 0.190994,-0.07643 0.419197,-0.06703 0.507118,0.02088 0.08792,0.08792 -0.06835,0.150452 -0.347265,0.138964 -0.308227,-0.0127 -0.37092,-0.07539 -0.159853,-0.15985 z m 8.895037,-2.70814 c -3.409479,-2.896605 -6.623023,-6.951159 -8.396332,-10.593717 -1.013786,-2.082422 -1.099818,-2.426523 -1.094261,-4.376777 0.0068,-2.396903 0.531815,-3.880009 1.941946,-5.486059 0.464198,-0.528693 3.070992,-2.783202 5.792877,-5.010024 9.219616,-7.542724 11.642386,-10.012521 13.341416,-13.600378 0.80075,-1.690937 0.86788,-2.037372 0.86788,-4.478538 0,-1.455208 -0.0892,-3.181614 -0.19811,-3.836458 -0.1815,-1.09084 -0.16488,-1.147603 0.19826,-0.677285 1.51139,1.957441 2.17579,6.901195 1.32387,9.850724 -1.13833,3.941105 -2.92634,6.230766 -9.778824,12.522393 -4.76825,4.377978 -7.107275,7.022071 -8.146206,9.208666 -0.735335,1.547636 -0.784045,1.834116 -0.674801,3.96875 0.151291,2.956235 0.846439,4.672097 3.292075,8.125976 1.982121,2.799273 3.674155,5.630844 3.480493,5.824508 -0.06397,0.06397 -0.941602,-0.58483 -1.950283,-1.441781 z"
       id="path1318" />
    <path
       style="opacity:0.93;fill:none;stroke-width:20.045"
       d="m 221.2659,508.86708 c -17.81021,-2.45117 -39.66456,-8.09324 -57.41253,-14.82197 l -3.44525,-1.30618 3.29477,-5.58423 c 6.32003,-10.71164 7.40089,-20.40414 7.42644,-66.5953 l 0.0241,-43.55931 h -10.69554 -10.69555 l -0.5634,48.95604 c -0.43587,37.87459 -1.05809,50.09036 -2.74884,53.96729 -1.202,2.75619 -2.58284,5.01125 -3.06855,5.01125 -0.4857,0 -7.06581,-3.54511 -14.62247,-7.87802 C 90.969054,455.38824 56.103361,420.69273 35.959169,384.7097 25.986379,366.89557 23.56335,361.98433 18.84278,350.01644 5.1445902,315.28792 -1.285852,272.83643 1.6710016,236.65449 3.0940382,219.24131 4.0636278,213.33006 8.7302383,193.61677 14.189727,170.55413 29.504566,135.02385 41.902724,116.65692 94.48768,38.756304 180.35237,-4.2265363 271.9523,1.4968458 c 9.85786,0.6159416 17.64965,1.5719253 17.3151,2.1244081 -0.33453,0.5524828 0.24278,5.5146378 1.28291,11.0270111 1.44785,7.673048 1.47794,12.090014 0.12829,18.842296 -3.23261,16.173517 -13.12139,27.237126 -56.53259,63.248952 -23.89072,19.818637 -25.21549,21.783957 -25.21549,37.407757 0,13.4697 1.84485,18.17238 13.30769,33.9223 11.09607,15.24599 33.72095,35.87733 33.72095,30.7497 0,-1.70347 -8.03881,-15.20741 -14.87584,-24.98906 -13.28809,-19.01112 -16.14277,-32.49365 -9.63944,-45.52658 1.97047,-3.94892 14.28279,-17.36323 31.43299,-34.246349 34.0978,-33.5668 36.80648,-37.976034 36.94212,-60.134983 0.0759,-12.392788 -0.37104,-14.685882 -4.17784,-21.435916 -2.34453,-4.1572367 -3.90209,-7.9192973 -3.46126,-8.3601346 2.06821,-2.0682232 33.5006,5.5974967 53.98174,13.1650506 89.55011,33.087774 156.82106,121.175692 163.44072,214.017362 0.5434,7.62137 1.23693,15.83277 1.54115,18.24756 0.86632,6.87631 -1.99252,39.93772 -4.70527,54.41472 -6.3793,34.04421 -19.22779,64.97817 -39.50379,95.1092 -11.79351,17.52566 -14.07719,20.21673 -33.60255,39.59685 -13.12964,13.03196 -41.77689,35.46422 -45.2898,35.46422 -0.42337,0 -1.02119,-12.3161 -1.32849,-27.36912 -0.61361,-30.0579 -1.34584,-32.98339 -9.68584,-38.69805 -4.37778,-2.99971 -7.10604,-3.55005 -17.2619,-3.48213 -7.08855,0.0475 -14.60547,1.07412 -18.22999,2.48995 -3.39223,1.32509 -7.38196,2.81222 -8.86606,3.30472 -3.27979,1.08843 -3.68367,9.39236 -0.65805,13.53014 1.94485,2.65974 2.39518,2.60138 9.62475,-1.24721 9.68674,-5.15665 16.57175,-5.23739 21.55635,-0.25279 4.95704,4.95702 5.30181,13.17643 0.55272,13.17643 -5.09766,0 -18.55209,4.34697 -25.13305,8.12018 -6.80034,3.899 -11.72493,11.87788 -11.72493,18.99687 0,5.68949 5.48206,14.41912 10.83975,17.26118 5.51754,2.92686 17.26204,1.26055 24.16202,-3.4281 l 5.76603,-3.91813 2.30069,3.79174 c 1.26538,2.08545 3.34166,3.99221 4.61396,4.23722 5.95412,1.14667 -42.10219,19.95547 -62.33071,24.3957 -27.03645,5.93457 -64.24511,7.49585 -90.97344,3.81727 z m -4.84424,-31.96572 5.7636,-3.91647 4.53211,4.53212 c 3.50611,3.50613 5.67096,4.4224 9.56282,4.04748 l 5.0307,-0.48462 0.41876,-29.67821 c 0.38472,-27.26595 0.16418,-30.17723 -2.71349,-35.81792 -1.72273,-3.37686 -5.24713,-7.23337 -7.83197,-8.57005 -11.87624,-6.14143 -46.15347,-0.16974 -46.15347,8.04075 0,4.83356 2.70734,11.28717 4.73506,11.28717 0.95014,0 3.59274,-1.32813 5.87242,-2.95142 4.86207,-3.4621 14.07615,-5.47627 19.18553,-4.19389 3.86864,0.97096 7.21313,6.67689 7.21313,12.3061 0,3.01763 -1.25443,3.73284 -9.55384,5.44705 -16.21253,3.34864 -24.98298,9.00468 -28.99962,18.70174 -3.46988,8.37703 1.64973,21.24559 9.85538,24.77226 5.60546,2.40916 16.88766,0.68767 23.08288,-3.52209 z m 82.23109,-15.09553 c 10.41604,-26.77459 14.53744,-36.9827 18.48046,-45.77339 1.97269,-4.39796 3.5867,-8.73462 3.5867,-9.63702 0,-0.97486 -3.70336,-1.64073 -9.12527,-1.64073 h -9.12527 l -7.98572,25.05625 c -4.39215,13.78093 -8.21045,25.75011 -8.48511,26.59816 -0.27466,0.84806 -0.55417,0.34293 -0.62112,-1.12252 -0.0669,-1.46544 -3.30377,-12.56728 -7.19291,-24.67076 -3.88915,-12.10348 -7.36749,-22.95391 -7.72966,-24.11208 -0.49525,-1.58377 -3.12323,-1.9488 -10.60175,-1.47261 -5.46878,0.34823 -10.40844,1.09833 -10.97699,1.66688 -0.56856,0.56855 1.61482,8.16988 4.85196,16.89184 7.11883,19.1805 20.71109,53.89235 21.78026,55.62233 0.42434,0.68657 4.2533,1.04075 8.50883,0.78704 l 7.7373,-0.46128 z m -6.45841,-100.29098 c 49.23817,-3.98721 62.25567,-6.24008 78.04275,-13.5065 7.4174,-3.41405 16.78549,-12.64995 16.78549,-16.54864 0,-2.95784 -0.31766,-2.90959 -9.99758,1.51808 -40.89865,18.70744 -95.0945,23.93609 -191.99428,18.52297 -12.62784,-0.70542 -14.28021,-0.52478 -11.9798,1.30971 10.20276,8.13627 71.16186,12.58982 119.14342,8.70438 z m -19.27403,-17.66231 c 58.60237,-3.75452 82.88972,-8.66822 94.44276,-19.10723 4.85948,-4.39088 5.44808,-9.52849 1.54192,-13.45891 -2.57418,-2.5902 -2.72121,-2.52015 -3.19497,1.52203 -0.97594,8.327 -6.45321,9.8597 -59.63838,16.68866 -21.6165,2.77555 -116.44252,2.74584 -131.06342,-0.041 -13.94536,-2.65815 -25.44172,-6.2992 -25.44172,-8.05771 0,-1.88908 11.32378,-7.5778 21.28419,-10.69253 4.4978,-1.40652 8.31406,-3.19805 8.48057,-3.9812 0.49669,-2.33618 -9.75665,-2.62749 -21.28419,-0.60472 -30.42709,5.33912 -44.97423,22.02402 -25.86762,29.66898 8.3859,3.35536 37.40216,7.15501 65.95761,8.63708 35.89638,1.86306 36.87081,1.85559 74.78325,-0.57337 z m 8.48057,-36.16834 c 19.65848,-4.5425 30.06749,-7.71209 30.06749,-9.15569 0,-0.62495 -2.60199,-2.53157 -5.78221,-4.23694 -3.18021,-1.70535 -7.29018,-4.04933 -9.13324,-5.20884 -2.83872,-1.78591 -5.31391,-1.77394 -16.19018,0.0783 -7.53234,1.28272 -23.67368,2.20215 -39.05185,2.22442 -23.2712,0.0338 -26.76847,-0.29827 -31.16548,-2.95832 -3.83658,-2.32101 -4.56894,-3.45881 -3.2496,-5.04851 3.25121,-3.91748 -0.48003,-4.17821 -7.38343,-0.51596 -8.4766,4.49681 -10.90778,8.33995 -8.32675,13.16265 2.82006,5.26934 15.65911,10.91032 30.08027,13.2161 10.49375,1.67784 50.63308,0.63845 60.13498,-1.55718 z m -11.44734,-37.82526 c 27.73591,-3.95236 42.76262,-6.64329 45.42847,-8.13516 2.19921,-1.23075 1.57092,-2.26313 -4.31014,-7.08222 l -6.88464,-5.64144 -12.16413,2.70691 c -9.78293,2.17702 -19.57252,2.70725 -50.00906,2.70856 -33.72354,0.001 -38.30214,-0.29795 -42.04346,-2.74936 -3.43908,-2.25337 -3.91493,-3.28098 -2.63056,-5.68083 2.70679,-5.05767 1.93947,-6.30773 -2.67229,-4.35345 -12.77786,5.41479 -17.56445,13.17416 -11.50798,18.65519 10.86369,9.83151 52.64003,14.4387 86.79379,9.5718 z m 68.49848,-3.73453 c 19.67996,-6.17167 38.12183,-17.4743 44.88372,-27.50826 4.26846,-6.33397 5.95176,-17.42616 3.68624,-24.29074 -1.97255,-5.97687 -8.55838,-12.1295 -16.56404,-15.47447 -7.21473,-3.01452 -21.87108,-2.93388 -26.2661,0.14448 -5.54389,3.8831 -4.01105,5.3093 5.70629,5.3093 7.56162,0 9.94457,0.68269 13.84819,3.96737 6.15958,5.18295 8.80868,14.53057 6.3981,22.57638 -2.78724,9.30296 -19.91897,24.62127 -37.47461,33.50785 -2.33216,1.18052 -4.24029,2.72303 -4.24029,3.42778 0,1.60758 -0.83931,1.74657 10.0225,-1.65972 z m -57.8221,-36.3908 c 9.75266,-1.35305 20.50757,-3.14199 23.8998,-3.9754 9.40001,-2.30941 25.44173,-9.26744 25.44173,-11.03524 0,-1.65094 -0.83472,-1.55294 -23.89981,2.80619 -11.208,2.11823 -23.96133,2.6557 -66.30267,2.79424 -52.31347,0.17117 -59.36402,-0.45214 -59.36402,-5.2481 0,-3.61749 16.61392,-9.26994 34.29204,-11.66695 10.11771,-1.37188 7.63311,-3.72943 -3.93007,-3.72911 -21.66244,6.1e-4 -49.19363,8.30784 -56.14014,16.93969 -6.35647,7.89865 3.70606,12.5249 35.02971,16.10489 12.02553,1.37441 74.2576,-0.67111 90.97343,-2.99021 z m -7.24756,-18.68222 c 14.5007,-7.36071 24.21707,-20.32507 24.20011,-32.2897 -0.0139,-9.89752 -2.67105,-16.32635 -10.75521,-26.02296 -13.10662,-15.72084 -11.80027,-27.59833 4.86169,-44.20308 7.90337,-7.87622 30.36953,-24.492089 33.13776,-24.508525 0.70946,-0.0042 3.37152,-1.713477 5.9157,-3.798367 l 4.62577,-3.790708 -4.62577,1.341145 c -16.03216,4.648183 -34.54462,12.983565 -47.39416,21.339582 -19.32215,12.565153 -27.38909,25.521673 -27.38909,43.990333 0,13.96296 2.70657,20.78492 11.89331,29.97724 4.45264,4.45534 8.5316,9.83736 9.06436,11.96003 1.55932,6.21286 -0.78501,14.97253 -5.6457,21.09536 -6.49751,8.18466 -6.11104,9.08337 2.11123,4.90965 z"
       id="path873"
       transform="matrix(0.26458333,0,0,0.26458333,30.994692,43.233704)" />
  </g>
</svg>
