<svg id="visual" viewBox="0 0 900 200" width="900" height="200" xmlns="http://www.w3.org/2000/svg" xmlns:xlink="http://www.w3.org/1999/xlink" version="1.1"><path d="M0 146L18.8 138.7C37.7 131.3 75.3 116.7 112.8 115.5C150.3 114.3 187.7 126.7 225.2 135.8C262.7 145 300.3 151 337.8 154.2C375.3 157.3 412.7 157.7 450.2 148C487.7 138.3 525.3 118.7 562.8 114.7C600.3 110.7 637.7 122.3 675.2 129.5C712.7 136.7 750.3 139.3 787.8 143.3C825.3 147.3 862.7 152.7 881.3 155.3L900 158L900 0L881.3 0C862.7 0 825.3 0 787.8 0C750.3 0 712.7 0 675.2 0C637.7 0 600.3 0 562.8 0C525.3 0 487.7 0 450.2 0C412.7 0 375.3 0 337.8 0C300.3 0 262.7 0 225.2 0C187.7 0 150.3 0 112.8 0C75.3 0 37.7 0 18.8 0L0 0Z" fill="#d1d0d0"></path><path d="M0 90L18.8 94.7C37.7 99.3 75.3 108.7 112.8 111.7C150.3 114.7 187.7 111.3 225.2 108.7C262.7 106 300.3 104 337.8 107.8C375.3 111.7 412.7 121.3 450.2 122C487.7 122.7 525.3 114.3 562.8 112C600.3 109.7 637.7 113.3 675.2 116.8C712.7 120.3 750.3 123.7 787.8 118C825.3 112.3 862.7 97.7 881.3 90.3L900 83L900 0L881.3 0C862.7 0 825.3 0 787.8 0C750.3 0 712.7 0 675.2 0C637.7 0 600.3 0 562.8 0C525.3 0 487.7 0 450.2 0C412.7 0 375.3 0 337.8 0C300.3 0 262.7 0 225.2 0C187.7 0 150.3 0 112.8 0C75.3 0 37.7 0 18.8 0L0 0Z" fill="#d8d7d7"></path><path d="M0 97L18.8 92.2C37.7 87.3 75.3 77.7 112.8 71.7C150.3 65.7 187.7 63.3 225.2 64.8C262.7 66.3 300.3 71.7 337.8 77.8C375.3 84 412.7 91 450.2 88.2C487.7 85.3 525.3 72.7 562.8 67.7C600.3 62.7 637.7 65.3 675.2 65.5C712.7 65.7 750.3 63.3 787.8 61.8C825.3 60.3 862.7 59.7 881.3 59.3L900 59L900 0L881.3 0C862.7 0 825.3 0 787.8 0C750.3 0 712.7 0 675.2 0C637.7 0 600.3 0 562.8 0C525.3 0 487.7 0 450.2 0C412.7 0 375.3 0 337.8 0C300.3 0 262.7 0 225.2 0C187.7 0 150.3 0 112.8 0C75.3 0 37.7 0 18.8 0L0 0Z" fill="#dfdfdf"></path><path d="M0 74L18.8 69.2C37.7 64.3 75.3 54.7 112.8 54C150.3 53.3 187.7 61.7 225.2 66.5C262.7 71.3 300.3 72.7 337.8 70.3C375.3 68 412.7 62 450.2 58.3C487.7 54.7 525.3 53.3 562.8 55C600.3 56.7 637.7 61.3 675.2 65.5C712.7 69.7 750.3 73.3 787.8 68.7C825.3 64 862.7 51 881.3 44.5L900 38L900 0L881.3 0C862.7 0 825.3 0 787.8 0C750.3 0 712.7 0 675.2 0C637.7 0 600.3 0 562.8 0C525.3 0 487.7 0 450.2 0C412.7 0 375.3 0 337.8 0C300.3 0 262.7 0 225.2 0C187.7 0 150.3 0 112.8 0C75.3 0 37.7 0 18.8 0L0 0Z" fill="#e6e6e6"></path><path d="M0 37L18.8 38.3C37.7 39.7 75.3 42.3 112.8 42.3C150.3 42.3 187.7 39.7 225.2 40C262.7 40.3 300.3 43.7 337.8 44.2C375.3 44.7 412.7 42.3 450.2 38.3C487.7 34.3 525.3 28.7 562.8 29C600.3 29.3 637.7 35.7 675.2 39.3C712.7 43 750.3 44 787.8 41.5C825.3 39 862.7 33 881.3 30L900 27L900 0L881.3 0C862.7 0 825.3 0 787.8 0C750.3 0 712.7 0 675.2 0C637.7 0 600.3 0 562.8 0C525.3 0 487.7 0 450.2 0C412.7 0 375.3 0 337.8 0C300.3 0 262.7 0 225.2 0C187.7 0 150.3 0 112.8 0C75.3 0 37.7 0 18.8 0L0 0Z" fill="#eeeeee"></path></svg>